<svg viewBox="0 0 317 80" version="1.1" xmlns="http://www.w3.org/2000/svg" class="jsx-3186684163"><path d="M220.99356,39.5502913 L215.892467,39.5502913 L215.892467,71.4304207 L205.082705,71.4304207 L205.082705,39.5502913 L198.260151,39.5502913 L198.260151,30.4036246 L205.082705,30.4036246 L205.082705,26.3187055 C205.082705,20.3985033 206.559434,15.9288177 209.512936,12.9095146 C212.466437,9.89021144 216.837554,8.38058252 222.626417,8.38058252 L224.841532,8.38058252 L224.841532,18.5040777 L223.601067,18.5040777 C221.001986,18.5040777 219.067471,19.096089 217.797466,20.2801294 C216.52746,21.4641699 215.892467,23.4770084 215.892467,26.3187055 L215.892467,30.4036246 L220.99356,30.4036246 L234.145015,30.4036246 L234.145015,26.3187055 C234.145015,20.3985033 235.621743,15.9288177 238.575245,12.9095146 C241.528746,9.89021144 245.899863,8.38058252 251.688726,8.38058252 L253.903841,8.38058252 L253.903841,18.5040777 L252.663376,18.5040777 C250.064295,18.5040777 248.129781,19.096089 246.859775,20.2801294 C245.589769,21.4641699 244.954776,23.4770084 244.954776,26.3187055 L244.954776,30.4036246 L253.372213,30.4036246 L253.372213,39.5502913 L244.954776,39.5502913 L244.954776,71.4304207 L234.145015,71.4304207 L234.145015,39.5502913 L220.99356,39.5502913 Z M38.0247161,40.6159613 C23.5433406,37.1720655 14.8367467,55.6278146 0,53.7734092 C0,48.475108 0,45.8259574 0,40.5276562 C14.7479039,42.3820616 23.4544978,23.9263125 38.0247161,27.3702083 L38.0247161,40.5276562 C52.77262,42.3820616 61.4792138,23.9263125 76.0494321,27.3702083 C76.0494321,32.6685095 76.0494321,35.2293551 76.0494321,40.4393512 C61.5680566,36.9954554 52.77262,55.4512045 38.0247161,53.5967991 L38.0247161,40.6159613 Z M38.0247161,14.2127604 C30.8284497,11.6519148 27.2747379,15.0958106 20.0784716,20.0408917 C12.0826201,25.6041079 8.0846943,30.284274 0,27.3702083 C0,22.0719071 0,19.4227565 0,14.1244554 C7.64048033,16.861911 11.3718777,12.8881851 19.012358,7.5015789 C26.6528384,2.20327772 30.3842357,-1.85875318 38.0247161,0.878702429 L38.0247161,14.1244554 C52.77262,15.9788608 61.4792138,-2.47688832 76.0494321,0.967007449 C76.0494321,6.26530863 76.0494321,8.91445921 76.0494321,14.2127604 C61.5680566,10.7688646 52.8614628,29.2246137 38.0247161,27.3702083 L38.0247161,14.2127604 Z M13.3264192,75.408139 L0,80 L0,66.8425521 L13.3264192,62.162386 L13.3264192,75.408139 Z M51.3511352,75.408139 L38.0247161,80 L38.0247161,66.8425521 L51.3511352,62.162386 L51.3511352,75.408139 Z M316.192876,71.4304207 L305.29451,71.4304207 L305.29451,9.26860841 L316.192876,9.26860841 L316.192876,71.4304207 Z M168.4004,72.7624595 C163.911078,72.7624595 160.263559,71.3416323 157.457732,68.4999353 C154.651906,65.6582382 153.249014,61.3365554 153.249014,55.5347573 L153.249014,30.4036246 L164.413193,30.4036246 L164.413193,53.5811003 C164.413193,56.6596055 165.092489,58.9536494 166.451099,60.463301 C167.80971,61.9729525 169.699922,62.727767 172.121794,62.727767 C174.957155,62.727767 177.172248,61.7065474 178.767139,59.6640777 C180.36203,57.6216079 181.159463,54.439547 181.159463,50.1177994 L181.159463,30.4036246 L192.057829,30.4036246 L192.057829,71.4304207 L181.336672,71.4304207 L181.336672,65.1254369 L181.159463,65.1254369 C178.324102,70.2168108 174.071123,72.7624595 168.4004,72.7624595 Z M278.358711,29.0715858 C284.620134,29.0715858 289.493338,30.9808223 292.97847,34.7993528 C296.463602,38.6178832 298.206142,44.0199866 298.206142,51.0058252 L298.206142,53.1370874 L267.637554,53.1370874 C267.932904,56.2747945 269.129054,58.7168413 271.226041,60.463301 C273.323027,62.2097606 275.966371,63.0829773 279.156152,63.0829773 C283.586405,63.0829773 287.662175,61.2181416 291.383587,57.4884142 L296.877073,65.3918447 C294.573342,67.5231175 292.003834,69.2843512 289.168472,70.6755987 C286.333111,72.0668462 282.995704,72.7624595 279.156152,72.7624595 C274.7259,72.7624595 270.856871,71.8596423 267.54895,70.0539806 C264.241028,68.2483189 261.67152,65.7026702 259.840349,62.4169579 C258.009178,59.1312457 257.093607,55.3275728 257.093607,51.0058252 C257.093607,46.6840776 257.979644,42.8656045 259.751745,39.5502913 C261.523846,36.234978 264.00475,33.6597287 267.194531,31.824466 C270.384313,29.9892033 274.105669,29.0715858 278.358711,29.0715858 Z M277.827083,37.8630421 C275.109862,37.8630421 272.880002,38.5438551 271.137436,39.9055016 C269.39487,41.2671481 268.316858,43.3391878 267.903368,46.1216828 L287.219171,46.1216828 C287.041961,43.5167939 286.111622,41.489155 284.428126,40.0387055 C282.74463,38.588256 280.544305,37.8630421 277.827083,37.8630421 Z M114.08578,9.26860841 C120.347203,9.26860841 125.91447,10.5266325 130.787747,13.0427184 C135.661025,15.5588044 139.470984,19.1552733 142.217741,23.832233 C144.964497,28.5091927 146.337855,34.0148982 146.337855,40.3495146 C146.337855,46.6841309 144.964497,52.1898364 142.217741,56.8667961 C139.470984,61.5437559 135.661025,65.1402247 130.787747,67.6563107 C125.91447,70.1723966 120.347203,71.4304207 114.08578,71.4304207 L94.2383489,71.4304207 L94.2383489,9.26860841 L114.08578,9.26860841 Z M105.579738,19.7473139 L105.579738,60.9517152 L114.617407,60.9517152 C118.397889,60.9517152 121.750063,60.1524999 124.67403,58.5540453 C127.597996,56.9555907 129.901693,54.6171459 131.585188,51.5386408 C133.268684,48.4601356 134.11042,44.7304642 134.11042,40.3495146 C134.11042,35.9685649 133.268684,32.2388935 131.585188,29.1603883 C129.901693,26.0818832 127.597996,23.7434384 124.67403,22.1449838 C121.750063,20.5465292 118.397889,19.7473139 114.617407,19.7473139 L105.579738,19.7473139 Z" fill="currentColor" fill-rule="nonzero" class="jsx-3186684163"></path></svg>
